# xmcd
# 
# Track frame offsets:
#     150
#     13798
#     25181
#     44634
#     82751
#     102646
#     128116
#     142662
# 
# Disc length: 2476
# 
# Revision: 0
# Processed by: cddbd v1.5.2PL0 Copyright (c) Steve Scherf et al.
# Submitted via: fre:ac v1.0.17
# 
DISCID=5f09aa08
DTITLE=Naranjito Blues - UNO edicion especial
DYEAR=2012
DGENRE=Blues
TTITLE0=Busking Jump
TTITLE1=Juke - Joint
TTITLE2=Shuffleman
TTITLE3=Skeleton Crew
TTITLE4=King of Swing
TTITLE5=The truck
TTITLE6=The Boogie Bumper
TTITLE7=Tema de Ruben
EXTD=
EXTT0=
EXTT1=
EXTT2=
EXTT3=
EXTT4=
EXTT5=
EXTT6=
EXTT7=
PLAYORDER=
